<svg width="56" height="56" viewBox="0 0 56 56" fill="none" xmlns="http://www.w3.org/2000/svg">
<rect x="0.5" y="0.5" width="55" height="55" rx="11.5" stroke="#21C17C"/>
<g clip-path="url(#clip0_2574_51921)">
<mask id="mask0_2574_51921" style="mask-type:alpha" maskUnits="userSpaceOnUse" x="7" y="7" width="42" height="42">
<rect x="7" y="7" width="42" height="42" fill="#D9D9D9"/>
</mask>
<g mask="url(#mask0_2574_51921)">
<path d="M28 46.375C25.9 44.3917 23.4938 42.875 20.7812 41.825C18.0687 40.775 15.225 40.25 12.25 40.25V21C15.1958 21 18.025 21.5323 20.7375 22.5969C23.45 23.6615 25.8708 25.2 28 27.2125C30.1292 25.2 32.55 23.6615 35.2625 22.5969C37.975 21.5323 40.8042 21 43.75 21V40.25C40.7458 40.25 37.8948 40.775 35.1969 41.825C32.499 42.875 30.1 44.3917 28 46.375ZM28 41.825C29.8375 40.4542 31.7917 39.3604 33.8625 38.5437C35.9333 37.7271 38.0625 37.1875 40.25 36.925V24.85C38.1208 25.2292 36.0281 25.9948 33.9719 27.1469C31.9156 28.299 29.925 29.8375 28 31.7625C26.075 29.8375 24.0844 28.299 22.0281 27.1469C19.9719 25.9948 17.8792 25.2292 15.75 24.85V36.925C17.9375 37.1875 20.0667 37.7271 22.1375 38.5437C24.2083 39.3604 26.1625 40.4542 28 41.825ZM28 22.75C26.075 22.75 24.4271 22.0646 23.0563 20.6938C21.6854 19.3229 21 17.675 21 15.75C21 13.825 21.6854 12.1771 23.0563 10.8063C24.4271 9.43542 26.075 8.75 28 8.75C29.925 8.75 31.5729 9.43542 32.9438 10.8063C34.3146 12.1771 35 13.825 35 15.75C35 17.675 34.3146 19.3229 32.9438 20.6938C31.5729 22.0646 29.925 22.75 28 22.75ZM28 19.25C28.9625 19.25 29.7865 18.9073 30.4719 18.2219C31.1573 17.5365 31.5 16.7125 31.5 15.75C31.5 14.7875 31.1573 13.9635 30.4719 13.2781C29.7865 12.5927 28.9625 12.25 28 12.25C27.0375 12.25 26.2135 12.5927 25.5281 13.2781C24.8427 13.9635 24.5 14.7875 24.5 15.75C24.5 16.7125 24.8427 17.5365 25.5281 18.2219C26.2135 18.9073 27.0375 19.25 28 19.25Z" fill="#21C17C"/>
</g>
</g>
<defs>
<clipPath id="clip0_2574_51921">
<rect width="42" height="42" fill="white" transform="translate(7 7)"/>
</clipPath>
</defs>
</svg>
