<svg width="56" height="56" viewBox="0 0 56 56" fill="none" xmlns="http://www.w3.org/2000/svg">
<rect x="0.5" y="0.5" width="55" height="55" rx="11.5" stroke="#21C17C"/>
<g clip-path="url(#clip0_2574_51908)">
<mask id="mask0_2574_51908" style="mask-type:alpha" maskUnits="userSpaceOnUse" x="7" y="7" width="42" height="42">
<rect x="7" y="7" width="42" height="42" fill="#D9D9D9"/>
</mask>
<g mask="url(#mask0_2574_51908)">
<path d="M19.25 36.75H22.75V28H19.25V36.75ZM33.25 36.75H36.75V19.25H33.25V36.75ZM26.25 36.75H29.75V31.5H26.25V36.75ZM26.25 28H29.75V24.5H26.25V28ZM15.75 43.75C14.7875 43.75 13.9635 43.4073 13.2781 42.7219C12.5927 42.0365 12.25 41.2125 12.25 40.25V15.75C12.25 14.7875 12.5927 13.9635 13.2781 13.2781C13.9635 12.5927 14.7875 12.25 15.75 12.25H40.25C41.2125 12.25 42.0365 12.5927 42.7219 13.2781C43.4073 13.9635 43.75 14.7875 43.75 15.75V40.25C43.75 41.2125 43.4073 42.0365 42.7219 42.7219C42.0365 43.4073 41.2125 43.75 40.25 43.75H15.75ZM15.75 40.25H40.25V15.75H15.75V40.25Z" fill="#21C17C"/>
</g>
</g>
<defs>
<clipPath id="clip0_2574_51908">
<rect width="42" height="42" fill="white" transform="translate(7 7)"/>
</clipPath>
</defs>
</svg>
