<svg width="56" height="56" viewBox="0 0 56 56" fill="none" xmlns="http://www.w3.org/2000/svg">
<rect x="0.5" y="0.5" width="55" height="55" rx="11.5" stroke="#21C17C"/>
<g clip-path="url(#clip0_2574_51980)">
<mask id="mask0_2574_51980" style="mask-type:alpha" maskUnits="userSpaceOnUse" x="7" y="7" width="42" height="42">
<rect x="7" y="7" width="42" height="42" fill="#D9D9D9"/>
</mask>
<g mask="url(#mask0_2574_51980)">
<path d="M15.75 45.5C14.7875 45.5 13.9635 45.1573 13.2781 44.4719C12.5927 43.7865 12.25 42.9625 12.25 42V17.5C12.25 16.5375 12.5927 15.7135 13.2781 15.0281C13.9635 14.3427 14.7875 14 15.75 14H17.5V10.5H21V14H35V10.5H38.5V14H40.25C41.2125 14 42.0365 14.3427 42.7219 15.0281C43.4073 15.7135 43.75 16.5375 43.75 17.5V42C43.75 42.9625 43.4073 43.7865 42.7219 44.4719C42.0365 45.1573 41.2125 45.5 40.25 45.5H15.75ZM15.75 42H40.25V24.5H15.75V42ZM15.75 21H40.25V17.5H15.75V21ZM28 31.5C27.5042 31.5 27.0885 31.3323 26.7531 30.9969C26.4177 30.6615 26.25 30.2458 26.25 29.75C26.25 29.2542 26.4177 28.8385 26.7531 28.5031C27.0885 28.1677 27.5042 28 28 28C28.4958 28 28.9115 28.1677 29.2469 28.5031C29.5823 28.8385 29.75 29.2542 29.75 29.75C29.75 30.2458 29.5823 30.6615 29.2469 30.9969C28.9115 31.3323 28.4958 31.5 28 31.5ZM21 31.5C20.5042 31.5 20.0885 31.3323 19.7531 30.9969C19.4177 30.6615 19.25 30.2458 19.25 29.75C19.25 29.2542 19.4177 28.8385 19.7531 28.5031C20.0885 28.1677 20.5042 28 21 28C21.4958 28 21.9115 28.1677 22.2469 28.5031C22.5823 28.8385 22.75 29.2542 22.75 29.75C22.75 30.2458 22.5823 30.6615 22.2469 30.9969C21.9115 31.3323 21.4958 31.5 21 31.5ZM35 31.5C34.5042 31.5 34.0885 31.3323 33.7531 30.9969C33.4177 30.6615 33.25 30.2458 33.25 29.75C33.25 29.2542 33.4177 28.8385 33.7531 28.5031C34.0885 28.1677 34.5042 28 35 28C35.4958 28 35.9115 28.1677 36.2469 28.5031C36.5823 28.8385 36.75 29.2542 36.75 29.75C36.75 30.2458 36.5823 30.6615 36.2469 30.9969C35.9115 31.3323 35.4958 31.5 35 31.5ZM28 38.5C27.5042 38.5 27.0885 38.3323 26.7531 37.9969C26.4177 37.6615 26.25 37.2458 26.25 36.75C26.25 36.2542 26.4177 35.8385 26.7531 35.5031C27.0885 35.1677 27.5042 35 28 35C28.4958 35 28.9115 35.1677 29.2469 35.5031C29.5823 35.8385 29.75 36.2542 29.75 36.75C29.75 37.2458 29.5823 37.6615 29.2469 37.9969C28.9115 38.3323 28.4958 38.5 28 38.5ZM21 38.5C20.5042 38.5 20.0885 38.3323 19.7531 37.9969C19.4177 37.6615 19.25 37.2458 19.25 36.75C19.25 36.2542 19.4177 35.8385 19.7531 35.5031C20.0885 35.1677 20.5042 35 21 35C21.4958 35 21.9115 35.1677 22.2469 35.5031C22.5823 35.8385 22.75 36.2542 22.75 36.75C22.75 37.2458 22.5823 37.6615 22.2469 37.9969C21.9115 38.3323 21.4958 38.5 21 38.5ZM35 38.5C34.5042 38.5 34.0885 38.3323 33.7531 37.9969C33.4177 37.6615 33.25 37.2458 33.25 36.75C33.25 36.2542 33.4177 35.8385 33.7531 35.5031C34.0885 35.1677 34.5042 35 35 35C35.4958 35 35.9115 35.1677 36.2469 35.5031C36.5823 35.8385 36.75 36.2542 36.75 36.75C36.75 37.2458 36.5823 37.6615 36.2469 37.9969C35.9115 38.3323 35.4958 38.5 35 38.5Z" fill="#21C17C"/>
</g>
</g>
<defs>
<clipPath id="clip0_2574_51980">
<rect width="42" height="42" fill="white" transform="translate(7 7)"/>
</clipPath>
</defs>
</svg>
