<svg width="56" height="56" viewBox="0 0 56 56" fill="none" xmlns="http://www.w3.org/2000/svg">
<rect x="0.5" y="0.5" width="55" height="55" rx="11.5" stroke="#21C17C"/>
<g clip-path="url(#clip0_2873_724)">
<mask id="mask0_2873_724" style="mask-type:alpha" maskUnits="userSpaceOnUse" x="7" y="7" width="42" height="42">
<rect x="7" y="7" width="42" height="42" fill="#D9D9D9"/>
</mask>
<g mask="url(#mask0_2873_724)">
<path d="M8.75 43.75L28 10.5L47.25 43.75H8.75ZM14.7875 40.25H41.2125L28 17.5L14.7875 40.25ZM28 38.5C28.4958 38.5 28.9115 38.3323 29.2469 37.9969C29.5823 37.6615 29.75 37.2458 29.75 36.75C29.75 36.2542 29.5823 35.8385 29.2469 35.5031C28.9115 35.1677 28.4958 35 28 35C27.5042 35 27.0885 35.1677 26.7531 35.5031C26.4177 35.8385 26.25 36.2542 26.25 36.75C26.25 37.2458 26.4177 37.6615 26.7531 37.9969C27.0885 38.3323 27.5042 38.5 28 38.5ZM26.25 33.25H29.75V24.5H26.25V33.25Z" fill="#21C17C"/>
</g>
</g>
<defs>
<clipPath id="clip0_2873_724">
<rect width="42" height="42" fill="white" transform="translate(7 7)"/>
</clipPath>
</defs>
</svg>
