<svg width="64" height="65" viewBox="0 0 64 65" fill="none" xmlns="http://www.w3.org/2000/svg">
<rect x="0.5" y="1" width="63" height="63" rx="11.5" stroke="#21C17C"/>
<g clip-path="url(#clip0_2588_107641)">
<mask id="mask0_2588_107641" style="mask-type:alpha" maskUnits="userSpaceOnUse" x="8" y="8" width="48" height="49">
<rect x="8" y="8.5" width="48" height="48" fill="#D9D9D9"/>
</mask>
<g mask="url(#mask0_2588_107641)">
<path d="M40 50.5V46.5H48V26.5H20V34.5H16V18.5C16 17.4 16.3917 16.4583 17.175 15.675C17.9583 14.8917 18.9 14.5 20 14.5H22V10.5H26V14.5H42V10.5H46V14.5H48C49.1 14.5 50.0417 14.8917 50.825 15.675C51.6083 16.4583 52 17.4 52 18.5V46.5C52 47.6 51.6083 48.5417 50.825 49.325C50.0417 50.1083 49.1 50.5 48 50.5H40ZM26 54.5L23.2 51.7L28.35 46.5H12V42.5H28.35L23.2 37.3L26 34.5L36 44.5L26 54.5ZM20 22.5H48V18.5H20V22.5Z" fill="#21C17C"/>
<path d="M40 50.5V46.5H48V26.5H20V34.5H16V18.5C16 17.4 16.3917 16.4583 17.175 15.675C17.9583 14.8917 18.9 14.5 20 14.5H22V10.5H26V14.5H42V10.5H46V14.5H48C49.1 14.5 50.0417 14.8917 50.825 15.675C51.6083 16.4583 52 17.4 52 18.5V46.5C52 47.6 51.6083 48.5417 50.825 49.325C50.0417 50.1083 49.1 50.5 48 50.5H40ZM26 54.5L23.2 51.7L28.35 46.5H12V42.5H28.35L23.2 37.3L26 34.5L36 44.5L26 54.5ZM20 22.5H48V18.5H20V22.5Z" fill="#21C17C"/>
<path d="M40 50.5V46.5H48V26.5H20V34.5H16V18.5C16 17.4 16.3917 16.4583 17.175 15.675C17.9583 14.8917 18.9 14.5 20 14.5H22V10.5H26V14.5H42V10.5H46V14.5H48C49.1 14.5 50.0417 14.8917 50.825 15.675C51.6083 16.4583 52 17.4 52 18.5V46.5C52 47.6 51.6083 48.5417 50.825 49.325C50.0417 50.1083 49.1 50.5 48 50.5H40ZM26 54.5L23.2 51.7L28.35 46.5H12V42.5H28.35L23.2 37.3L26 34.5L36 44.5L26 54.5ZM20 22.5H48V18.5H20V22.5Z" fill="#21C17C"/>
<path d="M40 50.5V46.5H48V26.5H20V34.5H16V18.5C16 17.4 16.3917 16.4583 17.175 15.675C17.9583 14.8917 18.9 14.5 20 14.5H22V10.5H26V14.5H42V10.5H46V14.5H48C49.1 14.5 50.0417 14.8917 50.825 15.675C51.6083 16.4583 52 17.4 52 18.5V46.5C52 47.6 51.6083 48.5417 50.825 49.325C50.0417 50.1083 49.1 50.5 48 50.5H40ZM26 54.5L23.2 51.7L28.35 46.5H12V42.5H28.35L23.2 37.3L26 34.5L36 44.5L26 54.5ZM20 22.5H48V18.5H20V22.5Z" fill="#21C17C"/>
</g>
</g>
<defs>
<clipPath id="clip0_2588_107641">
<rect width="48" height="48" fill="white" transform="translate(8 8.5)"/>
</clipPath>
</defs>
</svg>
