<svg width="64" height="65" viewBox="0 0 64 65" fill="none" xmlns="http://www.w3.org/2000/svg">
<rect x="0.5" y="1" width="63" height="63" rx="11.5" stroke="#21C17C"/>
<g clip-path="url(#clip0_2588_107669)">
<mask id="mask0_2588_107669" style="mask-type:alpha" maskUnits="userSpaceOnUse" x="8" y="8" width="48" height="49">
<rect x="8" y="8.5" width="48" height="48" fill="#D9D9D9"/>
</mask>
<g mask="url(#mask0_2588_107669)">
<path d="M29.9 45.2L22.8 38.1L25.7 35.2L29.9 39.4L38.3 31L41.2 33.9L29.9 45.2ZM18 52.5C16.9 52.5 15.9583 52.1083 15.175 51.325C14.3917 50.5417 14 49.6 14 48.5V20.5C14 19.4 14.3917 18.4583 15.175 17.675C15.9583 16.8917 16.9 16.5 18 16.5H20V12.5H24V16.5H40V12.5H44V16.5H46C47.1 16.5 48.0417 16.8917 48.825 17.675C49.6083 18.4583 50 19.4 50 20.5V48.5C50 49.6 49.6083 50.5417 48.825 51.325C48.0417 52.1083 47.1 52.5 46 52.5H18ZM18 48.5H46V28.5H18V48.5ZM18 24.5H46V20.5H18V24.5Z" fill="#21C17C"/>
<path d="M29.9 45.2L22.8 38.1L25.7 35.2L29.9 39.4L38.3 31L41.2 33.9L29.9 45.2ZM18 52.5C16.9 52.5 15.9583 52.1083 15.175 51.325C14.3917 50.5417 14 49.6 14 48.5V20.5C14 19.4 14.3917 18.4583 15.175 17.675C15.9583 16.8917 16.9 16.5 18 16.5H20V12.5H24V16.5H40V12.5H44V16.5H46C47.1 16.5 48.0417 16.8917 48.825 17.675C49.6083 18.4583 50 19.4 50 20.5V48.5C50 49.6 49.6083 50.5417 48.825 51.325C48.0417 52.1083 47.1 52.5 46 52.5H18ZM18 48.5H46V28.5H18V48.5ZM18 24.5H46V20.5H18V24.5Z" fill="#21C17C"/>
<path d="M29.9 45.2L22.8 38.1L25.7 35.2L29.9 39.4L38.3 31L41.2 33.9L29.9 45.2ZM18 52.5C16.9 52.5 15.9583 52.1083 15.175 51.325C14.3917 50.5417 14 49.6 14 48.5V20.5C14 19.4 14.3917 18.4583 15.175 17.675C15.9583 16.8917 16.9 16.5 18 16.5H20V12.5H24V16.5H40V12.5H44V16.5H46C47.1 16.5 48.0417 16.8917 48.825 17.675C49.6083 18.4583 50 19.4 50 20.5V48.5C50 49.6 49.6083 50.5417 48.825 51.325C48.0417 52.1083 47.1 52.5 46 52.5H18ZM18 48.5H46V28.5H18V48.5ZM18 24.5H46V20.5H18V24.5Z" fill="#21C17C"/>
<path d="M29.9 45.2L22.8 38.1L25.7 35.2L29.9 39.4L38.3 31L41.2 33.9L29.9 45.2ZM18 52.5C16.9 52.5 15.9583 52.1083 15.175 51.325C14.3917 50.5417 14 49.6 14 48.5V20.5C14 19.4 14.3917 18.4583 15.175 17.675C15.9583 16.8917 16.9 16.5 18 16.5H20V12.5H24V16.5H40V12.5H44V16.5H46C47.1 16.5 48.0417 16.8917 48.825 17.675C49.6083 18.4583 50 19.4 50 20.5V48.5C50 49.6 49.6083 50.5417 48.825 51.325C48.0417 52.1083 47.1 52.5 46 52.5H18ZM18 48.5H46V28.5H18V48.5ZM18 24.5H46V20.5H18V24.5Z" fill="#21C17C"/>
</g>
</g>
<defs>
<clipPath id="clip0_2588_107669">
<rect width="48" height="48" fill="white" transform="translate(8 8.5)"/>
</clipPath>
</defs>
</svg>
