<svg width="626" height="627" viewBox="0 0 626 627" fill="none" xmlns="http://www.w3.org/2000/svg">
<circle cx="312.997" cy="313.076" r="260.833" fill="#333333"/>
<mask id="path-3-inside-1_1791_24207" fill="white">
<path d="M291.066 467.315C291.066 458.576 287.595 450.196 281.416 444.017C275.238 437.838 266.857 434.367 258.119 434.367C249.381 434.367 241.001 437.838 234.822 444.017C228.643 450.196 225.172 458.576 225.172 467.315L258.119 467.315H291.066Z"/>
</mask>
<path d="M291.066 467.315C291.066 458.576 287.595 450.196 281.416 444.017C275.238 437.838 266.857 434.367 258.119 434.367C249.381 434.367 241.001 437.838 234.822 444.017C228.643 450.196 225.172 458.576 225.172 467.315L258.119 467.315H291.066Z" stroke="white" stroke-width="20.8667" mask="url(#path-3-inside-1_1791_24207)"/>
<path d="M305.571 499.927L323.939 468.113L342.308 499.927H305.571Z" stroke="white" stroke-width="11.7375"/>
<path d="M366.136 445.361L389.861 421.636L413.587 445.361L389.861 469.087L366.136 445.361Z" stroke="white" stroke-width="13.0417"/>
<path d="M367.725 350.341L389.861 334.258L411.997 350.341L403.542 376.363H376.181L367.725 350.341Z" stroke="white" stroke-width="15.65"/>
<path d="M241.414 256.332L258.119 248.287L274.825 256.332L278.951 274.409L267.39 288.906H248.848L237.288 274.409L241.414 256.332Z" stroke="white" stroke-width="20.8667"/>
<path d="M243.805 167.462L258.119 161.533L272.433 167.462L278.362 181.775L272.433 196.089L258.119 202.018L243.805 196.089L237.876 181.775L243.805 167.462Z" stroke="white" stroke-width="23.475"/>
<path d="M311.682 123.254L323.939 118.793L336.197 123.254L342.718 134.55L340.453 147.396L330.461 155.78H317.418L307.426 147.396L305.161 134.55L311.682 123.254Z" stroke="white" stroke-width="26.0833"/>
<path d="M382.586 171.761L389.861 169.397L397.137 171.761L401.634 177.95V185.601L397.137 191.79L389.861 194.154L382.586 191.79L378.089 185.601V177.95L382.586 171.761Z" stroke="white" stroke-width="39.125"/>
<path d="M304.535 302.365L323.939 291.163L343.344 302.366V324.771L323.939 335.974L304.535 324.771V302.365Z" stroke="white" stroke-width="18.2583"/>
<path d="M242.529 390.465C242.529 400.075 234.739 407.865 225.129 407.865C215.519 407.865 207.729 400.075 207.729 390.465C207.729 380.855 215.519 373.065 225.129 373.065C234.739 373.065 242.529 380.855 242.529 390.465Z" stroke="white" stroke-width="9.12917"/>
</svg>
